<svg width="192" height="275" viewBox="0 0 192 275" fill="none" xmlns="http://www.w3.org/2000/svg">
<path d="M11.2068 114.783C13.5401 108.125 17.4548 104.611 20.899 105.1C21.8658 105.237 26.1059 104.932 25.5904 107.978C25.0386 111.238 24.6231 113.105 23.1677 112.898C20.9742 112.587 22.7808 106.945 24.5079 107.19" stroke="#242DFF" stroke-width="9.36585" stroke-linecap="round"/>
<path d="M26.1538 164.037C36.3081 148.689 58.6276 181.037 69.3581 159.531" stroke="#DC4EFF" stroke-width="9.36585" stroke-linecap="round"/>
<path d="M41.445 170.559C49.4878 171.702 55.081 173.751 62.0482 167.211" stroke="#DC4EFF" stroke-width="7.80488" stroke-linecap="round"/>
<path d="M93.3302 140.589L90.5034 145.508" stroke="#DC4EFF" stroke-width="9.36585" stroke-linecap="round"/>
<path d="M29.9202 81.3931C29.641 83.3588 29.9878 85.9901 27.3544 85.6162C25.9486 85.4166 25.561 84.2017 24.3249 83.8753C23.2916 83.6024 26.2292 87.2519 27.2801 88.1906C32.032 92.4352 12.0735 79.6563 8.45118 84.8979" stroke="#242DFF" stroke-width="9.36585" stroke-linecap="round"/>
<path d="M104.844 212.024C103.208 201.574 101.94 197.286 105.021 188.438" stroke="#242DFF" stroke-width="7.80488" stroke-linecap="round"/>
<path d="M4.98071 158.627C6.89686 167.433 9.69445 175.976 14.3507 183.515C21.7677 195.524 33.9725 199.363 46.8713 200.101C59.2879 200.812 71.1843 195.652 82.5813 190.544C85.6825 189.154 88.835 187.49 90.7653 184.487" stroke="#242DFF" stroke-width="7.80488" stroke-linecap="round"/>
<path d="M61.382 202.419C61.1109 211.175 62.1259 226.065 57.6763 233.203" stroke="#242DFF" stroke-width="7.80488" stroke-linecap="round"/>
<path d="M23.3605 44.9434C46.3991 70.3454 71.3802 95.7503 103.724 113.104C113.571 118.387 127.886 124.472 139.766 122.905" stroke="#66FF4E" stroke-width="7.80488" stroke-linecap="round"/>
<path d="M60.6018 113.418C61.2997 109.099 64.9685 106.289 69.551 104.352C74.1721 102.4 77.691 102.56 82.3968 104.298C84.8702 105.212 88.0092 106.685 88.1908 107.765C88.3948 108.978 86.1912 111.709 85.3287 112.718C83.1155 115.308 76.1581 120.804 74.1161 114.599C72.4616 109.571 81.4127 105.609 80.4625 112.301" stroke="#242DFF" stroke-width="9.36585" stroke-linecap="round"/>
<path d="M160.216 172.75C157.874 185.276 155.64 197.826 154.39 210.517C153.445 220.109 152.294 231.197 154.864 240.734C156.93 248.395 164.386 248.704 171.242 247.567" stroke="#66FF4E" stroke-width="7.80488" stroke-linecap="round"/>
<path d="M124.78 129.227C126.705 119.393 138.782 128.001 139.164 134.908C139.59 142.623 136.575 148.14 130.137 152.63" stroke="#242DFF" stroke-width="7.80488" stroke-linecap="round"/>
<path d="M76.5487 113.629C77.1238 113.621 77.6745 113.646 78.2422 113.727" stroke="#242DFF" stroke-width="9.36585" stroke-linecap="round"/>
<path d="M83.2197 109.738C83.491 109.257 83.622 108.909 83.6967 108.383" stroke="#242DFF" stroke-width="9.36585" stroke-linecap="round"/>
<path d="M55.4377 86.7874C55.3466 87.4289 54.6596 92.5586 55.2229 91.8859C58.4609 88.0183 58.5779 86.4247 62.691 82.9564C63.7976 82.0232 67.7704 78.9696 69.5376 81.0458C71.4601 83.3045 70.2768 85.328 68.7117 86.8621C67.5054 88.0444 63.8835 89.9064 63.9176 91.612C63.9368 92.576 75.5855 87.9762 76.6078 87.6481C83.7649 85.3508 90.1968 85.6891 97.9297 86.7872" stroke="#242DFF" stroke-width="9.36585" stroke-linecap="round"/>
<path d="M54.1677 225.929C54.0747 233.057 56.4398 276.312 64.1882 264.82C75.1126 248.618 85.555 231.992 99.5865 223.38C107.395 218.587 115.756 219.738 123.463 220.775" stroke="#66FF4E" stroke-width="7.80488" stroke-linecap="round"/>
<path d="M163.566 139.725C163.407 140.54 163.215 141.345 163.215 142.178" stroke="#66FF4E" stroke-width="9.36585" stroke-linecap="round"/>
<path d="M119.608 159.653C117.685 161.276 120.309 163.649 121.911 161.395C122.816 160.12 121.012 159.947 120.131 159.653" stroke="#FFF84E" stroke-width="9.36585" stroke-linecap="round"/>
<path d="M23.0873 43.7303C26.0437 39.5087 30.4885 36.5783 35.0561 33.8575C43.9447 28.5631 53.7566 24.1898 64.8332 22.9378C96.8536 19.3187 125.566 37.82 143.175 63.5345C152.01 76.436 158.948 92.0201 160.984 106.573C162.01 113.915 162.526 121.032 164.587 128.322" stroke="#66FF4E" stroke-width="7.80488" stroke-linecap="round"/>
<path d="M39.3707 115.937C39.6886 117.23 40.7532 118.986 38.9948 120.168C35.7684 122.336 31.4303 123.569 27.8576 125.332C25.2741 126.607 23.2779 128.562 23.1443 130.782C23.0389 132.535 23.4076 134.339 24.1709 135.895C24.9558 137.495 25.8074 138.915 27.4209 140.333C29.9662 142.571 35.5 143.5 35.5 143.5" stroke="#242DFF" stroke-width="7" stroke-linecap="round"/>
</svg>
