<svg width="47" height="43" viewBox="0 0 47 43" fill="none" xmlns="http://www.w3.org/2000/svg">
<circle cx="5" cy="5" r="5" fill="#242DFF"/>
<rect y="5" width="10" height="19" fill="#242DFF"/>
<circle cx="5" cy="24" r="5" fill="#242DFF"/>
<circle cx="5" cy="38" r="5" fill="#242DFF"/>
<circle cx="5" cy="38" r="5" transform="rotate(-90 5 38)" fill="#242DFF"/>
<rect x="5" y="43" width="10" height="7" transform="rotate(-90 5 43)" fill="#242DFF"/>
<rect x="5" y="29" width="10" height="7" transform="rotate(-90 5 29)" fill="#242DFF"/>
<path fill-rule="evenodd" clip-rule="evenodd" d="M24 31C24 37.6274 18.59 43 11.9165 43V33C13.0288 33 13.9304 32.1046 13.9304 31C13.9304 29.8954 13.0288 29 11.9165 29L11.9165 27.3161L11.9165 19C18.59 19 24 24.3726 24 31Z" fill="#242DFF"/>
<rect x="5" y="43" width="10" height="7" transform="rotate(-90 5 43)" fill="#242DFF"/>
<circle cx="42" cy="38" r="5" transform="rotate(-180 42 38)" fill="#242DFF"/>
<circle cx="42" cy="24" r="5" transform="rotate(-180 42 24)" fill="#C4C4C4"/>
<rect x="42" y="19" width="10" height="7" transform="rotate(90 42 19)" fill="#242DFF"/>
<rect x="42" y="33" width="10" height="7" transform="rotate(90 42 33)" fill="#242DFF"/>
<path fill-rule="evenodd" clip-rule="evenodd" d="M23 31C23 24.3726 28.41 19 35.0835 19V29C33.9712 29 33.0696 29.8954 33.0696 31C33.0696 32.1046 33.9712 33 35.0835 33L35.0835 34.6839L35.0835 43C28.41 43 23 37.6274 23 31Z" fill="#242DFF"/>
<rect x="42" y="19" width="10" height="7" transform="rotate(90 42 19)" fill="#242DFF"/>
<circle cx="5" cy="38" r="5" transform="rotate(-180 5 38)" fill="#66FF4E"/>
<circle cx="42" cy="24" r="5" transform="rotate(90 42 24)" fill="#DC4EFF"/>
<circle cx="5" cy="5" r="5" transform="rotate(90 5 5)" fill="#FFF84E"/>
</svg>
