<svg width="358" height="358" viewBox="0 0 358 358" fill="none" xmlns="http://www.w3.org/2000/svg">
<rect width="358" height="358" fill="white"/>
<path d="M73.2906 146.367C76.266 137.877 81.2578 133.396 85.6497 134.019C86.8826 134.195 92.2894 133.806 91.6321 137.69C90.9285 141.847 88.6896 144.793 86.8337 144.53C84.0366 144.132 86.3404 136.938 88.5427 137.251" stroke="#242DFF" stroke-width="11.943" stroke-linecap="round"/>
<path d="M92.3504 209.174C105.299 189.603 133.76 230.852 147.443 203.428" stroke="#DC4EFF" stroke-width="11.943" stroke-linecap="round"/>
<path d="M111.849 217.491C122.105 218.948 129.237 221.561 138.122 213.222" stroke="#DC4EFF" stroke-width="9.95251" stroke-linecap="round"/>
<path d="M178.011 179.274L174.407 185.546" stroke="#DC4EFF" stroke-width="11.943" stroke-linecap="round"/>
<path d="M97.1531 103.79C96.7972 106.296 97.2393 109.652 93.8813 109.175C92.0887 108.92 91.5945 107.371 90.0182 106.955C88.7006 106.607 92.4465 111.261 93.7866 112.458C99.8461 117.87 74.3957 101.575 69.7766 108.259" stroke="#242DFF" stroke-width="11.943" stroke-linecap="round"/>
<path d="M192.694 270.366C190.607 257.04 188.99 251.572 192.919 240.289" stroke="#242DFF" stroke-width="9.95251" stroke-linecap="round"/>
<path d="M65.3513 202.276C67.7947 213.505 71.3621 224.398 77.2996 234.012C86.7576 249.325 102.321 254.221 118.769 255.162C134.602 256.068 149.772 249.488 164.305 242.975C168.259 241.203 172.279 239.081 174.741 235.252" stroke="#242DFF" stroke-width="9.95251" stroke-linecap="round"/>
<path d="M137.272 258.117C136.926 269.283 138.221 288.27 132.547 297.372" stroke="#242DFF" stroke-width="9.95251" stroke-linecap="round"/>
<path d="M88.7886 57.3102C118.167 89.702 150.022 122.097 191.265 144.226C203.822 150.963 222.075 158.722 237.224 156.725" stroke="#66FF4E" stroke-width="9.95251" stroke-linecap="round"/>
<path d="M136.277 144.627C137.167 139.12 141.845 135.535 147.689 133.066C153.582 130.577 158.069 130.781 164.069 132.997C167.223 134.163 171.226 136.041 171.458 137.418C171.718 138.966 168.908 142.447 167.808 143.734C164.986 147.037 156.114 154.045 153.51 146.132C151.4 139.721 162.814 134.67 161.603 143.202" stroke="#242DFF" stroke-width="11.943" stroke-linecap="round"/>
<path d="M263.302 220.285C260.315 236.258 257.467 252.261 255.873 268.444C254.668 280.676 253.2 294.815 256.478 306.975C259.111 316.745 268.619 317.138 277.362 315.688" stroke="#66FF4E" stroke-width="9.95251" stroke-linecap="round"/>
<path d="M218.114 164.786C220.57 152.245 235.97 163.222 236.456 172.03C237 181.867 233.155 188.903 224.946 194.628" stroke="#242DFF" stroke-width="9.95251" stroke-linecap="round"/>
<path d="M156.612 144.896C157.346 144.885 158.048 144.918 158.772 145.021" stroke="#242DFF" stroke-width="11.943" stroke-linecap="round"/>
<path d="M165.119 139.934C165.465 139.32 165.632 138.877 165.727 138.206" stroke="#242DFF" stroke-width="11.943" stroke-linecap="round"/>
<path d="M129.692 110.668C129.576 111.486 128.7 118.028 129.418 117.17C133.547 112.238 133.696 110.206 138.941 105.783C140.352 104.593 145.418 100.699 147.672 103.347C150.123 106.227 148.614 108.807 146.619 110.763C145.08 112.271 140.462 114.646 140.505 116.82C140.53 118.05 155.384 112.184 156.687 111.766C165.814 108.836 174.016 109.268 183.876 110.668" stroke="#242DFF" stroke-width="11.943" stroke-linecap="round"/>
<path d="M128.073 288.096C127.954 297.186 130.97 352.344 140.85 337.689C154.781 317.029 168.097 295.828 185.989 284.846C195.946 278.735 206.607 280.202 216.436 281.525" stroke="#66FF4E" stroke-width="9.95251" stroke-linecap="round"/>
<path d="M267.573 178.173C267.37 179.212 267.126 180.239 267.126 181.3" stroke="#66FF4E" stroke-width="11.943" stroke-linecap="round"/>
<path d="M211.52 203.584C209.067 205.654 212.413 208.68 214.456 205.805C215.611 204.18 213.31 203.959 212.186 203.584" stroke="#FFF84E" stroke-width="11.943" stroke-linecap="round"/>
<path d="M88.4401 55.7633C92.21 50.3801 97.8778 46.6433 103.702 43.1739C115.037 36.4227 127.548 30.846 141.673 29.2495C182.504 24.6345 219.117 48.2268 241.572 81.0169C252.838 97.4685 261.685 117.341 264.281 135.898C265.59 145.261 266.247 154.336 268.876 163.632" stroke="#66FF4E" stroke-width="9.95251" stroke-linecap="round"/>
<path d="M109.204 147.838C109.609 149.487 110.967 151.727 108.725 153.234C104.611 155.998 99.0788 157.571 94.5229 159.819C91.2287 161.445 88.6832 163.938 88.5128 166.769C88.3783 169.004 88.8485 171.305 89.8218 173.289C90.8227 175.329 91.9086 177.14 93.9661 178.948C97.2117 181.801 104.268 182.986 104.268 182.986" stroke="#242DFF" stroke-width="8.92615" stroke-linecap="round"/>
</svg>
