<svg width="47" height="47" viewBox="0 0 47 47" fill="none" xmlns="http://www.w3.org/2000/svg">
<ellipse cx="5" cy="9.54167" rx="5" ry="3.54167" fill="#242DFF"/>
<rect y="9.54167" width="10" height="13.4583" fill="#242DFF"/>
<circle cx="5" cy="23" r="5" fill="#242DFF"/>
<circle cx="5" cy="37" r="5" fill="#242DFF"/>
<circle cx="5" cy="37" r="5" transform="rotate(-90 5 37)" fill="#242DFF"/>
<rect x="5" y="42" width="10" height="7" transform="rotate(-90 5 42)" fill="#242DFF"/>
<rect x="5" y="28" width="10" height="7" transform="rotate(-90 5 28)" fill="#242DFF"/>
<path fill-rule="evenodd" clip-rule="evenodd" d="M24 30C24 36.6274 18.59 42 11.9165 42V32C13.0288 32 13.9304 31.1046 13.9304 30C13.9304 28.8954 13.0288 28 11.9165 28L11.9165 26.3161L11.9165 18C18.59 18 24 23.3726 24 30Z" fill="#242DFF"/>
<rect x="5" y="42" width="10" height="7" transform="rotate(-90 5 42)" fill="#242DFF"/>
<circle cx="42" cy="37" r="5" transform="rotate(-180 42 37)" fill="#242DFF"/>
<circle cx="42" cy="23" r="5" transform="rotate(-180 42 23)" fill="#C4C4C4"/>
<rect x="42" y="18" width="10" height="7" transform="rotate(90 42 18)" fill="#242DFF"/>
<rect x="42" y="32" width="10" height="7" transform="rotate(90 42 32)" fill="#242DFF"/>
<path fill-rule="evenodd" clip-rule="evenodd" d="M23 30C23 23.3726 28.41 18 35.0835 18V28C33.9712 28 33.0696 28.8954 33.0696 30C33.0696 31.1046 33.9712 32 35.0835 32L35.0835 33.6839L35.0835 42C28.41 42 23 36.6274 23 30Z" fill="#242DFF"/>
<rect x="42" y="18" width="10" height="7" transform="rotate(90 42 18)" fill="#242DFF"/>
<circle cx="5" cy="37" r="5" transform="rotate(-180 5 37)" fill="#66FF4E"/>
<circle cx="42" cy="23" r="5" transform="rotate(90 42 23)" fill="#DC4EFF"/>
<circle cx="5" cy="9" r="5" transform="rotate(90 5 9)" fill="#FFF84E"/>
</svg>
